HIERARCHY
ROOT Hips
{
	OFFSET 0.000000 35.082581 0.000000
	CHANNELS 6 Xposition Yposition Zposition Xrotation Yrotation Zrotation 
	JOINT Spine
	{
		OFFSET 0.000000 6.876099 0.125700
		CHANNELS 3 Xrotation Yrotation Zrotation
		JOINT Spine1
		{
			OFFSET 0.000000 5.730043 0.104720
			CHANNELS 3 Xrotation Yrotation Zrotation
			JOINT Spine1_split
			{
				OFFSET 0.000000 5.730043 0.104720
				CHANNELS 3 Xrotation Yrotation Zrotation
				JOINT Spine2
				{
					OFFSET 0.000000 5.730043 0.104720
					CHANNELS 3 Xrotation Yrotation Zrotation
					JOINT Neck
					{
						OFFSET 0.000000 10.314075 0.188496
						CHANNELS 3 Xrotation Yrotation Zrotation
						JOINT Head
						{
							OFFSET 0.000000 7.643700 -2.377400
							CHANNELS 3 Xrotation Yrotation Zrotation
							JOINT HeadTop_End
							{
								OFFSET 0.000000 43.788605 -13.619600
								CHANNELS 3 Xrotation Yrotation Zrotation
								End Site
								{
									OFFSET 0.000000 0.000000 0.000000
								}
							}
						}
					}
					JOINT LeftShoulder
					{
						OFFSET 2.196100 4.412489 0.087492
						CHANNELS 3 Xrotation Yrotation Zrotation
						JOINT LeftShoulder_split
						{
							OFFSET 2.196100 4.412489 0.087492
							CHANNELS 3 Xrotation Yrotation Zrotation
							JOINT LeftArm
							{
								OFFSET 8.771219 -2.981674 -0.026999
								CHANNELS 3 Xrotation Yrotation Zrotation
								JOINT LeftForeArm
								{
									OFFSET 8.512804 0.000000 -0.000000
									CHANNELS 3 Xrotation Yrotation Zrotation
									JOINT LeftHand
									{
										OFFSET 18.484802 0.000000 -0.000000
										CHANNELS 3 Xrotation Yrotation Zrotation
										JOINT LeftHandThumb1
										{
											OFFSET 2.499420 -1.158070 2.653252
											CHANNELS 3 Xrotation Yrotation Zrotation
											JOINT LeftHandThumb2
											{
												OFFSET 2.370079 -1.368366 1.368366
												CHANNELS 3 Xrotation Yrotation Zrotation
												JOINT LeftHandThumb3
												{
													OFFSET 2.676727 -1.545410 1.545409
													CHANNELS 3 Xrotation Yrotation Zrotation
													JOINT LeftHandThumb4
													{
														OFFSET 1.692226 -0.977005 0.977007
														CHANNELS 3 Xrotation Yrotation Zrotation
														End Site
														{
															OFFSET 0.000000 0.000000 0.000000
														}
													}
												}
											}
										}
										JOINT LeftHandIndex1
										{
											OFFSET 7.924831 -0.457527 2.345128
											CHANNELS 3 Xrotation Yrotation Zrotation
											JOINT LeftHandIndex2
											{
												OFFSET 3.643303 0.000000 0.000000
												CHANNELS 3 Xrotation Yrotation Zrotation
												JOINT LeftHandIndex3
												{
													OFFSET 3.810799 0.000000 0.000000
													CHANNELS 3 Xrotation Yrotation Zrotation
													JOINT LeftHandIndex4
													{
														OFFSET 2.403702 0.000000 0.000000
														CHANNELS 3 Xrotation Yrotation Zrotation
														End Site
														{
															OFFSET 0.000000 0.000000 0.000000
														}
													}
												}
											}
										}
										JOINT LeftHandMiddle1
										{
											OFFSET 8.563995 0.000000 -0.000000
											CHANNELS 3 Xrotation Yrotation Zrotation
											JOINT LeftHandMiddle2
											{
												OFFSET 3.861618 0.000000 0.000000
												CHANNELS 3 Xrotation Yrotation Zrotation
												JOINT LeftHandMiddle3
												{
													OFFSET 3.701603 0.000000 0.000000
													CHANNELS 3 Xrotation Yrotation Zrotation
													JOINT LeftHandMiddle4
													{
														OFFSET 2.322544 0.000000 0.000000
														CHANNELS 3 Xrotation Yrotation Zrotation
														End Site
														{
															OFFSET 0.000000 0.000000 0.000000
														}
													}
												}
											}
										}
										JOINT LeftHandRing1
										{
											OFFSET 8.426460 -0.424637 -3.286992
											CHANNELS 3 Xrotation Yrotation Zrotation
											JOINT LeftHandRing2
											{
												OFFSET 3.126408 0.000000 0.000000
												CHANNELS 3 Xrotation Yrotation Zrotation
												JOINT LeftHandRing3
												{
													OFFSET 3.085026 0.000000 0.000000
													CHANNELS 3 Xrotation Yrotation Zrotation
													JOINT LeftHandRing4
													{
														OFFSET 1.644005 0.000000 0.000000
														CHANNELS 3 Xrotation Yrotation Zrotation
														End Site
														{
															OFFSET 0.000000 0.000000 0.000000
														}
													}
												}
											}
										}
									}
								}
							}
						}
					}
					JOINT RightShoulder
					{
						OFFSET -2.196100 4.412496 0.070690
						CHANNELS 3 Xrotation Yrotation Zrotation
						JOINT RightShoulder_split
						{
							OFFSET -2.196100 4.412496 0.070690
							CHANNELS 3 Xrotation Yrotation Zrotation
							JOINT RightArm
							{
								OFFSET -8.771282 -2.981682 -0.094208
								CHANNELS 3 Xrotation Yrotation Zrotation
								JOINT RightForeArm
								{
									OFFSET -8.494598 0.000000 0.000000
									CHANNELS 3 Xrotation Yrotation Zrotation
									JOINT RightHand
									{
										OFFSET -18.483803 0.000000 0.000001
										CHANNELS 3 Xrotation Yrotation Zrotation
										JOINT RightHandThumb1
										{
											OFFSET -2.527351 -1.008072 2.575253
											CHANNELS 3 Xrotation Yrotation Zrotation
											JOINT RightHandThumb2
											{
												OFFSET -2.321518 -1.340328 1.340329
												CHANNELS 3 Xrotation Yrotation Zrotation
												JOINT RightHandThumb3
												{
													OFFSET -2.657753 -1.534454 1.534455
													CHANNELS 3 Xrotation Yrotation Zrotation
													JOINT RightHandThumb4
													{
														OFFSET -1.807510 -1.043568 1.043567
														CHANNELS 3 Xrotation Yrotation Zrotation
														End Site
														{
															OFFSET 0.000000 0.000000 0.000000
														}
													}
												}
											}
										}
										JOINT RightHandIndex1
										{
											OFFSET -8.811420 0.015533 2.887987
											CHANNELS 3 Xrotation Yrotation Zrotation
											JOINT RightHandIndex2
											{
												OFFSET -3.537502 0.000000 0.000000
												CHANNELS 3 Xrotation Yrotation Zrotation
												JOINT RightHandIndex3
												{
													OFFSET -3.356201 0.000000 0.000000
													CHANNELS 3 Xrotation Yrotation Zrotation
													JOINT RightHandIndex4
													{
														OFFSET -1.933098 0.000000 0.000000
														CHANNELS 3 Xrotation Yrotation Zrotation
														End Site
														{
															OFFSET 0.000000 0.000000 0.000000
														}
													}
												}
											}
										}
										JOINT RightHandMiddle1
										{
											OFFSET -8.178135 0.000000 0.000000
											CHANNELS 3 Xrotation Yrotation Zrotation
											JOINT RightHandMiddle2
											{
												OFFSET -3.901302 0.000000 0.000000
												CHANNELS 3 Xrotation Yrotation Zrotation
												JOINT RightHandMiddle3
												{
													OFFSET -3.909599 0.000000 0.000000
													CHANNELS 3 Xrotation Yrotation Zrotation
													JOINT RightHandMiddle4
													{
														OFFSET -2.376003 0.000000 0.000000
														CHANNELS 3 Xrotation Yrotation Zrotation
														End Site
														{
															OFFSET 0.000000 0.000000 0.000000
														}
													}
												}
											}
										}
										JOINT RightHandRing1
										{
											OFFSET -7.559013 0.014137 -2.865403
											CHANNELS 3 Xrotation Yrotation Zrotation
											JOINT RightHandRing2
											{
												OFFSET -3.449306 0.000000 0.000000
												CHANNELS 3 Xrotation Yrotation Zrotation
												JOINT RightHandRing3
												{
													OFFSET -3.362106 0.000000 0.000000
													CHANNELS 3 Xrotation Yrotation Zrotation
													JOINT RightHandRing4
													{
														OFFSET -2.076401 0.000000 0.000000
														CHANNELS 3 Xrotation Yrotation Zrotation
														End Site
														{
															OFFSET 0.000000 0.000000 0.000000
														}
													}
												}
											}
										}
									}
								}
							}
						}
					}
				}
			}
		}
	}
	JOINT LeftUpLeg
	{
		OFFSET 10.205400 -3.823500 0.155100
		CHANNELS 3 Xrotation Yrotation Zrotation
		JOINT LeftLeg
		{
			OFFSET 0.708757 -12.982077 0.567790
			CHANNELS 3 Xrotation Yrotation Zrotation
			JOINT LeftFoot
			{
				OFFSET -0.708756 -10.717838 -2.184338
				CHANNELS 3 Xrotation Yrotation Zrotation
				JOINT LeftToeBase
				{
					OFFSET 0.108149 -7.191104 7.560241
					CHANNELS 3 Xrotation Yrotation Zrotation
					JOINT LeftToe_End
					{
						OFFSET 0.070230 0.081724 4.490308
						CHANNELS 3 Xrotation Yrotation Zrotation
						End Site
						{
							OFFSET 0.000000 0.000000 0.000000
						}
					}
				}
			}
		}
	}
	JOINT RightUpLeg
	{
		OFFSET -10.205400 -3.823500 0.005500
		CHANNELS 3 Xrotation Yrotation Zrotation
		JOINT RightLeg
		{
			OFFSET -0.708756 -12.982134 0.610632
			CHANNELS 3 Xrotation Yrotation Zrotation
			JOINT RightFoot
			{
				OFFSET 0.708754 -10.717769 -1.945823
				CHANNELS 3 Xrotation Yrotation Zrotation
				JOINT RightToeBase
				{
					OFFSET -0.108140 -7.191069 7.372968
					CHANNELS 3 Xrotation Yrotation Zrotation
					JOINT RightToe_End
					{
						OFFSET -0.070227 0.081735 4.479403
						CHANNELS 3 Xrotation Yrotation Zrotation
						End Site
						{
							OFFSET 0.000000 0.000000 0.000000
						}
					}
				}
			}
		}
	}
}
MOTION
Frames: 4
Frame Time: 0.016667
4.677561 15.291843 -2.121274 0.640985 -24.205979 8.549985 2.891951 -1.307955 -5.197129 2.227982 -1.286561 -3.027763 0.000000 0.000000 0.000000 2.233816 -1.285665 -3.025123 -3.962407 3.288526 2.946569 -0.115030 19.920376 2.691781 0.000000 -0.000000 0.000000 0.452719 1.693814 1.739709 0.000000 0.000000 0.000000 -1.798692 -11.700852 -58.798653 0.000029 -83.306745 0.000042 -56.402920 17.147810 27.573317 -1.540058 3.690170 6.142347 3.939054 7.948716 0.746810 -0.579460 1.575004 2.538727 -0.000001 -0.000001 -0.000002 1.016540 3.605834 -31.478709 1.016515 3.605846 -31.478692 0.193854 1.625523 -13.600722 -0.000004 -0.000000 -0.000000 1.299293 4.030464 -35.722880 1.301553 4.033599 -35.755009 0.332600 2.118094 -17.846577 0.000004 0.000001 0.000000 1.751604 4.592891 -41.733689 1.751610 4.592893 -41.733699 0.588552 2.790128 -23.818360 0.000002 0.000003 0.000001 5.136831 17.382620 7.477138 0.000000 0.000000 0.000000 14.034089 22.826757 31.042281 -0.000022 121.743942 -0.000013 2.429560 -25.805976 9.048798 -1.849256 -3.581797 -6.586137 4.637199 -8.634122 -0.225395 -1.273771 0.137309 -2.094871 0.000004 -0.000003 -0.000001 0.013968 -0.441463 3.625095 0.176775 -1.560957 12.920990 0.044334 -0.785461 6.459299 0.000000 -0.000001 -0.000005 0.522939 -2.650083 22.321562 0.387271 -2.292325 19.175930 0.044327 -0.785461 6.459301 -0.000000 -0.000001 0.000000 0.723857 -3.093976 26.329766 0.387261 -2.292336 19.175941 0.044347 -0.785469 6.459279 0.000000 -0.000000 -0.000000 -90.643119 -16.599716 45.437991 74.515486 10.811947 -5.119847 35.178657 -3.262077 -6.170957 -0.000651 0.000003 -0.000001 -0.000000 -0.000000 -0.000000 13.432504 -2.226329 -26.547651 100.661757 28.666362 4.050090 -3.139074 -2.653670 22.262720 59.508126 -2.882724 -4.949007 -0.000001 -0.000002 -0.000000 
4.672936 15.301647 -2.109466 0.673234 -24.169164 8.559433 2.889086 -1.319626 -5.205567 2.224217 -1.288403 -3.033397 0.000000 0.000000 0.000000 2.230124 -1.286488 -3.030590 -3.922925 3.288499 2.958157 -0.049251 19.944315 2.683308 0.000000 0.000000 -0.000000 0.482389 1.632735 1.765190 0.000000 0.000000 0.000000 -1.851263 -11.677325 -58.833194 -0.000006 -83.371154 0.000003 -56.190703 17.156038 27.669300 -1.540055 3.690172 6.142349 3.939052 7.948709 0.746809 -0.579463 1.574995 2.538721 0.000000 0.000003 -0.000002 1.016541 3.605840 -31.478709 1.016520 3.605843 -31.478689 0.193849 1.625525 -13.600723 0.000000 -0.000000 0.000000 1.299294 4.030464 -35.722876 1.301547 4.033600 -35.755006 0.332594 2.118096 -17.846579 -0.000001 0.000001 -0.000002 1.751605 4.592895 -41.733685 1.751605 4.592896 -41.733692 0.588551 2.790128 -23.818365 0.000000 -0.000000 -0.000001 5.151231 17.427062 7.474803 0.000000 0.000000 0.000000 14.053419 22.660450 31.058120 -0.000002 121.812326 -0.000016 2.471113 -25.904551 9.104230 -1.849250 -3.581795 -6.586135 4.637199 -8.634123 -0.225402 -1.273765 0.137315 -2.094868 0.000002 0.000002 0.000001 0.013973 -0.441480 3.625082 0.176782 -1.560936 12.920992 0.044318 -0.785466 6.459292 0.000000 0.000002 -0.000000 0.522929 -2.650085 22.321557 0.387273 -2.292329 19.175937 0.044334 -0.785467 6.459292 -0.000000 -0.000000 0.000001 0.723863 -3.093981 26.329746 0.387267 -2.292318 19.175946 0.044319 -0.785458 6.459284 0.000000 -0.000004 -0.000000 -90.640544 -16.623750 45.399482 74.534446 10.826506 -5.166403 35.149752 -3.248474 -6.136264 -0.000655 -0.000001 -0.000007 0.000000 0.000001 -0.000000 13.402020 -2.204934 -26.535381 100.745522 28.606741 4.080161 -3.284915 -2.683919 22.204223 59.549981 -2.935976 -5.011291 -0.000001 0.000002 0.000000 
4.668981 15.310738 -2.100088 0.700843 -24.136128 8.567593 2.890741 -1.330251 -5.213720 2.223865 -1.290199 -3.038301 0.000000 0.000000 0.000000 2.230375 -1.288410 -3.035256 -3.886561 3.294389 2.964091 -0.011394 19.978532 2.670442 -0.000000 -0.000001 -0.000000 0.506472 1.585639 1.768608 0.000000 0.000000 0.000000 -1.905219 -11.648045 -58.840625 0.000122 -83.445944 0.000131 -56.101610 17.119321 27.700906 -1.540052 3.690171 6.142345 3.939054 7.948715 0.746810 -0.579463 1.574995 2.538721 -0.000004 0.000001 -0.000002 1.016542 3.605836 -31.478713 1.016521 3.605841 -31.478696 0.193855 1.625524 -13.600720 -0.000000 0.000000 -0.000000 1.299295 4.030462 -35.722880 1.301548 4.033602 -35.755009 0.332599 2.118095 -17.846577 -0.000001 -0.000000 0.000000 1.751607 4.592886 -41.733692 1.751609 4.592893 -41.733699 0.588554 2.790129 -23.818362 -0.000002 0.000001 0.000002 5.163611 17.463967 7.466036 0.000000 0.000000 0.000000 14.080604 22.520705 31.066835 -0.000017 121.886666 -0.000003 2.595709 -26.024064 9.128049 -1.849246 -3.581791 -6.586136 4.637191 -8.634120 -0.225401 -1.273766 0.137314 -2.094864 -0.000002 0.000003 -0.000000 0.013964 -0.441480 3.625086 0.176750 -1.560952 12.920986 0.044331 -0.785455 6.459300 0.000000 -0.000003 -0.000004 0.522922 -2.650099 22.321543 0.387281 -2.292313 19.175932 0.044317 -0.785469 6.459292 0.000000 0.000003 0.000000 0.723837 -3.093998 26.329749 0.387283 -2.292314 19.175946 0.044325 -0.785457 6.459289 -0.000001 -0.000001 -0.000000 -90.630210 -16.649646 45.360721 74.546133 10.847336 -5.211702 35.128626 -3.237211 -6.104963 -0.000656 -0.000008 0.000000 0.000000 0.000001 0.000000 13.380481 -2.193965 -26.517473 100.818052 28.541544 4.103003 -3.415218 -2.710996 22.163677 59.578326 -2.987095 -5.078092 -0.000001 0.000005 0.000001 
4.665218 15.319008 -2.093326 0.724820 -24.111922 8.576476 2.896418 -1.341030 -5.222404 2.225575 -1.291790 -3.043522 0.000000 0.000000 0.000000 2.232483 -1.289741 -3.040205 -3.853553 3.304082 2.962690 -0.005854 20.019076 2.662787 0.000000 -0.000000 -0.000000 0.522517 1.557774 1.745681 0.000000 0.000000 0.000000 -1.958939 -11.606914 -58.821541 0.000110 -83.536820 0.000140 -56.009761 17.105241 27.723955 -1.540054 3.690172 6.142349 3.939052 7.948710 0.746811 -0.579464 1.575000 2.538723 -0.000003 -0.000000 0.000002 1.016542 3.605837 -31.478709 1.016522 3.605842 -31.478692 0.193853 1.625524 -13.600723 0.000001 0.000000 0.000000 1.299296 4.030468 -35.722883 1.301551 4.033603 -35.755006 0.332596 2.118095 -17.846577 -0.000000 0.000001 0.000000 1.751606 4.592894 -41.733689 1.751606 4.592891 -41.733699 0.588548 2.790128 -23.818362 -0.000000 0.000000 0.000001 5.172928 17.492002 7.451934 0.000000 0.000000 0.000000 14.105759 22.416244 31.064103 -0.000033 121.951375 -0.000009 2.794236 -26.106470 9.140199 -1.849254 -3.581795 -6.586141 4.637196 -8.634127 -0.225401 -1.273763 0.137314 -2.094864 -0.000001 0.000001 0.000003 0.013961 -0.441469 3.625096 0.176768 -1.560946 12.920991 0.044332 -0.785470 6.459286 -0.000000 0.000000 -0.000003 0.522927 -2.650083 22.321559 0.387274 -2.292321 19.175932 0.044340 -0.785464 6.459286 0.000000 -0.000001 0.000001 0.723831 -3.093983 26.329770 0.387291 -2.292323 19.175935 0.044323 -0.785441 6.459284 0.000000 -0.000002 -0.000000 -90.604461 -16.677618 45.330070 74.551911 10.870921 -5.256620 35.111048 -3.230610 -6.090817 -0.000647 0.000000 -0.000001 0.000000 0.000002 -0.000000 13.365162 -2.190192 -26.498965 100.881191 28.473341 4.118041 -3.527886 -2.733963 22.137140 59.593599 -3.033272 -5.146865 0.000000 0.000003 0.000000 
